<svg height="512pt" viewBox="0 -81 512 512" width="512pt" xmlns="http://www.w3.org/2000/svg"><path d="m482 40h-312v-10c0-16.539062-13.460938-30-30-30h-110c-16.539062 0-30 13.460938-30 30v290c0 16.539062 13.460938 30 30 30h452c16.539062 0 30-13.460938 30-30v-250c0-16.539062-13.460938-30-30-30zm10 280c0 5.511719-4.488281 10-10 10h-452c-5.511719 0-10-4.488281-10-10v-290c0-5.511719 4.488281-10 10-10h110c5.511719 0 10 4.488281 10 10v60c0 5.519531 4.46875 10 10 10h332zm0-240h-322v-20h312c5.511719 0 10 4.488281 10 10zm0 0"/><path d="m60 265.5c-5.523438 0-10-4.476562-10-10v-90c0-5.523438 4.476562-10 10-10s10 4.476562 10 10v90c0 5.523438-4.476562 10-10 10zm0 0"/><path d="m60.019531 300.5c-5.523437 0-10.003906-4.476562-10.003906-10s4.472656-10 9.996094-10h.007812c5.523438 0 10 4.476562 10 10s-4.476562 10-10 10zm0 0"/><path d="m332.339844 133.480469c-2.320313-1.902344-5.359375-2.671875-8.300782-2.082031l-100 20c-4.679687.941406-8.039062 5.042968-8.039062 9.8125v79.308593c-3.128906-1.121093-6.5-1.730469-10-1.730469-16.539062 0-30 13.460938-30 30 0 16.539063 13.460938 30 30 30 15.988281 0 29.089844-12.570312 29.949219-28.347656 0-.042968.011719-.089844.011719-.140625 0-.011719 0-.011719 0-.019531.027343-.492188.039062-.992188.039062-1.492188v-59.378906l80-16v27.109375c-3.128906-1.121093-6.5-1.730469-10-1.730469-16.539062 0-30 13.460938-30 30 0 16.539063 13.460938 30 30 30 15.988281 0 29.089844-12.570312 29.949219-28.347656.011719-.121094.019531-.242187.019531-.371094.019531-.421874.03125-.851562.03125-1.28125v-107.578124c0-3-1.339844-5.832032-3.660156-7.730469zm-126.339844 145.308593c-5.511719 0-10-4.488281-10-10 0-5.507812 4.488281-10 10-10s10 4.492188 10 10c0 5.511719-4.488281 10-10 10zm30-89.777343v-19.601563l80-16v19.601563zm70 69.777343c-5.511719 0-10-4.488281-10-10 0-5.507812 4.488281-10 10-10s10 4.492188 10 10c0 5.511719-4.488281 10-10 10zm0 0"/></svg>